<svg xmlns="http://www.w3.org/2000/svg" viewBox="0 0 64 64" fill="none">
  <circle cx="32" cy="32" r="32" fill="#1DB954" />
  <path
    d="M17 26.5c9.5-3 20-2.2 28.8 2.2a2 2 0 1 0 1.8-3.6C38 20 26.3 19.2 15.6 22.6a2 2 0 1 0 1.4 3.9Z"
    fill="#121212"
  />
  <path
    d="M18.6 34.8c8-2.5 16.8-1.8 24 2a1.8 1.8 0 1 0 1.7-3.2c-8-4.2-17.8-5-26.7-2.2a1.8 1.8 0 1 0 1 3.4Z"
    fill="#121212"
  />
  <path
    d="M20.4 42.8c6.7-2 13.9-1.4 19.7 1.7a1.5 1.5 0 1 0 1.4-2.7c-6.5-3.4-14.6-4.1-22-1.9a1.5 1.5 0 0 0 .9 2.9Z"
    fill="#121212"
  />
</svg>
